<svg xmlns="http://www.w3.org/2000/svg" viewBox="0 0 215.87 20.57"><defs><style>.cls-1{fill:#8e81b7;}.cls-2{fill:#966192;}.cls-3{fill:none;}</style></defs><title>cocktalelogo</title><g id="Layer_2" data-name="Layer 2"><g id="Layer_1-2" data-name="Layer 1"><path class="cls-1" d="M16.23,3.27v.5H10V20.11H6.26V3.77H0V.39H7.58C10.11,1.3,13,2.27,16.23,3.27Z"/><path class="cls-1" d="M32.83,12.79v7.32H29.39V12.82c0-2.54-1.33-3.61-3.16-3.61A3.56,3.56,0,0,0,22.8,13v7.09H19.36V4.23c1.11.33,2.26.66,3.44,1V8.11a5,5,0,0,1,3.24-2q2.4.64,5,1.29h0C32.26,8.58,32.83,10.45,32.83,12.79Z"/><path class="cls-2" d="M22.8.39V5.22c-1.18-.33-2.33-.66-3.44-1V.39Z"/><path class="cls-3" d="M31,7.4q-2.59-.65-5-1.29A6.71,6.71,0,0,1,27.14,6,5.37,5.37,0,0,1,31,7.4Z"/><path class="cls-2" d="M50.59,11.53c-1.15-.2-2.28-.41-3.39-.62h0c-.44-1.37-1.73-2.07-3.46-2.07a4.27,4.27,0,0,0-2.68.85L37.39,8.9a7.12,7.12,0,0,1,6.23-3.1C47.41,5.8,50,7.72,50.59,11.53Z"/><path class="cls-1" d="M50.64,14.4H39.79c.22,1.72,1.72,3,4.14,3a5.77,5.77,0,0,0,3.72-1.3l2.2,2.17a8.54,8.54,0,0,1-6,2.25c-4.79,0-7.65-3-7.65-7.41A7.66,7.66,0,0,1,37.39,8.9l3.66.79a3.59,3.59,0,0,0-1.21,1.86h7.5a4.27,4.27,0,0,0-.14-.64c1.11.21,2.24.42,3.39.62A11.79,11.79,0,0,1,50.64,14.4Z"/><path class="cls-1" d="M72.05,17.64a10.4,10.4,0,0,1-7.5,2.93c-6.48,0-9.65-3.95-10.31-8.42,1.27.22,2.58.42,3.9.62h0c.76,2.36,2.74,4.3,6.41,4.3a7.26,7.26,0,0,0,5-2Z"/><path class="cls-2" d="M71.8,3l-2.48,2.4a6.77,6.77,0,0,0-4.77-1.86c-4.75,0-6.81,3.55-6.79,6.84a8,8,0,0,0,.38,2.38c-1.32-.2-2.63-.4-3.9-.62a12.92,12.92,0,0,1-.14-1.76C54.07,5.24,57.43,0,64.55,0A10.19,10.19,0,0,1,71.8,3Z"/><path class="cls-1" d="M88.07,15.91A7.28,7.28,0,0,1,74.24,14.8l3.68.35a3.75,3.75,0,0,0,6.45.52C85.59,15.76,86.82,15.84,88.07,15.91Z"/><path class="cls-1" d="M104,18.34a7.16,7.16,0,0,1-5.36,2.2c-3.13,0-5.85-1.47-6.91-4.43,1.4.07,2.81.13,4.24.18a4,4,0,0,0,2.67.95,4.34,4.34,0,0,0,2.62-.78H102Z"/><path class="cls-2" d="M102,16.47h-.81a3.7,3.7,0,0,0,.42-.37Z"/><path class="cls-1" d="M110,16.54v3.57h-3.44V16.53Z"/><path class="cls-1" d="M119.53,19.86v.25h-4.14l-3.11-3.58,4.16-.06h0Z"/><path class="cls-1" d="M131.47,19.69a7.57,7.57,0,0,1-2.84.6c-2.69.1-4.56-1.27-4.92-4l3.48-.16a1.63,1.63,0,0,0,1.67,1.09,4.16,4.16,0,0,0,1.66-.42Z"/><path class="cls-1" d="M148.92,14.41v5.7h-3.24l-.17-2c-.79,1.63-3,2.42-4.51,2.45-3.33,0-5.95-1.63-6.84-4.84l3.69-.27a3.93,3.93,0,0,0,3.54,1.95,3.81,3.81,0,0,0,3.78-2.59C146.41,14.67,147.66,14.55,148.92,14.41Z"/><path class="cls-1" d="M156.36,13.55v6.56h-3.42V14Z"/><path class="cls-1" d="M174.28,14.4H163.43c.22,1.72,1.72,3,4.14,3a5.77,5.77,0,0,0,3.72-1.3l2.2,2.17a8.55,8.55,0,0,1-6,2.25c-4.78,0-7.62-2.95-7.63-7.39,3.42-.46,6.89-1,10.39-1.54H171l0-.11c1-.17,2.11-.34,3.16-.53A11.55,11.55,0,0,1,174.28,14.4Z"/><path class="cls-1" d="M195.66,10.08c.09,5-2.95,10-9.86,10h-7.75V10.22l3.69-.69v7h4.06c4.48,0,6.26-3.27,6.17-6.48a7.6,7.6,0,0,0-.48-2.5l3.63-.8A11.59,11.59,0,0,1,195.66,10.08Z"/><path class="cls-1" d="M212.71,9.92a4,4,0,0,0,2.56-3.81,5.33,5.33,0,0,0-1.5-4q-3.12.86-6.21,1.64h.93c2.36,0,3.09,1.52,3.09,2.43,0,1.13-.76,2.11-3.09,2.11h-5.7V5l-3.66.88V20.11h9.36c4.08,0,7.38-1.4,7.38-5.8A4.8,4.8,0,0,0,212.71,9.92Zm-4.22,6.73h-5.7V11.58h5.7c1.51,0,3.69.93,3.69,2.7S210,16.65,208.49,16.65Z"/><path class="cls-2" d="M16.23.39V3.27c-3.24-1-6.12-2-8.65-2.88Z"/><path class="cls-3" d="M19.36,4.23c-1.08-.32-2.12-.64-3.13-1"/><path class="cls-3" d="M26,6.11c-1.11-.3-2.19-.59-3.24-.89"/><path class="cls-3" d="M54.24,12.15l-3.65-.62"/><path class="cls-2" d="M88.54,13.18a7.87,7.87,0,0,1-.47,2.73c-1.25-.07-2.48-.15-3.7-.24a4.5,4.5,0,0,0,.7-2.49,3.92,3.92,0,0,0-3.78-4.11,3.82,3.82,0,0,0-3.78,4.11,4.79,4.79,0,0,0,.41,2l-3.68-.35a7.81,7.81,0,0,1-.16-1.62,7,7,0,0,1,7.18-7.24A7,7,0,0,1,88.54,13.18Z"/><path class="cls-2" d="M103.61,7.89l-2.17,2.28a4.24,4.24,0,0,0-2.79-1.1,3.91,3.91,0,0,0-4,4.11,4,4,0,0,0,1.27,3.11c-1.43-.05-2.84-.11-4.24-.18a8.78,8.78,0,0,1-.47-2.93c0-4.93,3.35-7.35,7.38-7.35A6.57,6.57,0,0,1,103.61,7.89Z"/><path class="cls-3" d="M91.68,16.11c-1.21-.06-2.42-.12-3.61-.2"/><path class="cls-2" d="M118.74,6.42l-5.66,6.34,3.36,3.71-4.16.06L110,13.83v2.71h-3.44V.42H110V11.8l4.68-5.57h4.11Z"/><path class="cls-3" d="M106.51,16.53c-1.51,0-3,0-4.48-.06"/><path class="cls-3" d="M112.28,16.53H110"/><path class="cls-2" d="M127.05,9.21v6a2.62,2.62,0,0,0,.14.88l-3.48.16a8.64,8.64,0,0,1-.07-1v-6h-2.59v-3h2.59V2.68l3.44-.37V6.25h3.83v3Z"/><path class="cls-3" d="M123.71,16.26c-2.46.09-4.87.16-7.26.21"/><path class="cls-2" d="M148.92,6.23v8.18c-1.26.14-2.51.26-3.75.38.9-2.47-.36-5.83-3.78-5.83a4,4,0,0,0-4.11,4.2,4.42,4.42,0,0,0,.57,2.27l-3.69.27a10,10,0,0,1-.32-2.54c0-4.79,3.19-7.3,7.24-7.28a5.1,5.1,0,0,1,4.43,2.26l.11-1.91Z"/><path class="cls-2" d="M156.36.42V13.55l-3.42.41V.42Z"/><path class="cls-3" d="M152.94,14l-4,.45"/><path class="cls-2" d="M163.48,11.55h6.79c-3.5.57-7,1.08-10.39,1.54v0a7,7,0,0,1,7.38-7.27c3.59,0,6.13,1.71,6.86,5.11-1.05.19-2.11.36-3.16.53-.27-1.73-1.66-2.6-3.59-2.6A3.75,3.75,0,0,0,163.48,11.55Z"/><path class="cls-2" d="M195.12,6.76l-3.63.8a5.66,5.66,0,0,0-5.69-3.65h-4.06V9.53l-3.69.69V.39h7.75C191,.39,194,3.23,195.12,6.76Z"/><path class="cls-3" d="M178.05,10.22l-3.93.69"/><path class="cls-3" d="M191.49,7.56c-3.29.7-6.53,1.36-9.75,2"/><path class="cls-2" d="M213.77,2.13q-3.12.86-6.21,1.64h-4.77V5l-3.66.88V.39h9.36A7.45,7.45,0,0,1,213.77,2.13Z"/><path class="cls-3" d="M207.56,3.77c-1.59.41-3.19.81-4.77,1.19"/><path class="cls-3" d="M199.13,5.84c-1.34.32-2.68.62-4,.92"/><path class="cls-3" d="M171,11.44l-.69.11"/><path class="cls-3" d="M159.88,13.09c-1.18.16-2.36.32-3.52.46"/><path class="cls-3" d="M145.17,14.79q-3.71.36-7.32.64"/><path class="cls-3" d="M134.16,15.7q-3.53.24-7,.4"/><path class="cls-3" d="M101.21,16.46c-1.79-.05-3.55-.1-5.29-.17"/><path class="cls-3" d="M84.37,15.67c-2.18-.16-4.34-.33-6.45-.52"/><path class="cls-3" d="M74.24,14.8c-5.64-.57-11-1.26-16.1-2"/><path class="cls-3" d="M47.19,10.91c-2.11-.4-4.15-.8-6.14-1.22"/><path class="cls-3" d="M37.39,8.9c-2.2-.5-4.32-1-6.36-1.5"/></g></g></svg>